<svg width="480" height="250" viewBox="0 0 480 250" fill="none" xmlns="http://www.w3.org/2000/svg">
<path d="M35.4677 142.248H102.632V168H4.26367V0.263916H35.4677V142.248Z" fill="#7E8CA0"/>
<path d="M168.995 47.1279C177.888 47.1279 185.931 48.5586 193.123 51.4199C200.392 54.2813 206.579 58.3413 211.683 63.5999C216.787 68.8586 220.731 75.2773 223.515 82.8559C226.299 90.4346 227.691 98.9026 227.691 108.26C227.691 117.695 226.299 126.201 223.515 133.78C220.731 141.359 216.787 147.816 211.683 153.152C206.579 158.488 200.392 162.587 193.123 165.448C185.931 168.309 177.888 169.74 168.995 169.74C160.101 169.74 152.02 168.309 144.751 165.448C137.481 162.587 131.256 158.488 126.075 153.152C120.971 147.816 116.988 141.359 114.127 133.78C111.343 126.201 109.951 117.695 109.951 108.26C109.951 98.9026 111.343 90.4346 114.127 82.8559C116.988 75.2773 120.971 68.8586 126.075 63.5999C131.256 58.3413 137.481 54.2813 144.751 51.4199C152.02 48.5586 160.101 47.1279 168.995 47.1279ZM168.995 147.7C178.893 147.7 186.201 144.375 190.919 137.724C195.713 131.073 198.111 121.329 198.111 108.492C198.111 95.6546 195.713 85.8719 190.919 79.1439C186.201 72.4159 178.893 69.0519 168.995 69.0519C158.941 69.0519 151.517 72.4546 146.723 79.2599C141.928 85.9879 139.531 95.7319 139.531 108.492C139.531 121.252 141.928 130.996 146.723 137.724C151.517 144.375 158.941 147.7 168.995 147.7Z" fill="#7E8CA0"/>
<path d="M291.226 46.8959C296.33 46.8959 301.125 47.4373 305.61 48.5199C310.095 49.5253 314.194 51.0333 317.906 53.0439H352.126V63.7159C352.126 65.4946 351.662 66.8866 350.734 67.8919C349.806 68.8973 348.221 69.5933 345.978 69.9799L335.306 71.9519C336.079 73.9626 336.659 76.0892 337.046 78.3319C337.51 80.5746 337.742 82.9333 337.742 85.4079C337.742 91.2853 336.543 96.6213 334.146 101.416C331.826 106.133 328.578 110.155 324.402 113.48C320.303 116.805 315.393 119.396 309.67 121.252C304.025 123.031 297.877 123.92 291.226 123.92C286.741 123.92 282.371 123.495 278.118 122.644C274.406 124.887 272.55 127.4 272.55 130.184C272.55 132.581 273.633 134.36 275.798 135.52C278.041 136.603 280.941 137.376 284.498 137.84C288.133 138.304 292.231 138.613 296.794 138.768C301.357 138.845 306.035 139.077 310.83 139.464C315.625 139.851 320.303 140.547 324.866 141.552C329.429 142.48 333.489 143.988 337.046 146.076C340.681 148.164 343.581 151.025 345.746 154.66C347.989 158.217 349.11 162.819 349.11 168.464C349.11 173.723 347.795 178.827 345.166 183.776C342.614 188.725 338.863 193.133 333.914 197C329.042 200.867 323.049 203.96 315.934 206.28C308.819 208.677 300.699 209.876 291.574 209.876C282.526 209.876 274.677 208.987 268.026 207.208C261.375 205.507 255.846 203.187 251.438 200.248C247.107 197.387 243.859 194.061 241.694 190.272C239.529 186.483 238.446 182.539 238.446 178.44C238.446 172.872 240.147 168.193 243.55 164.404C246.953 160.615 251.67 157.599 257.702 155.356C254.763 153.732 252.405 151.567 250.626 148.86C248.847 146.153 247.958 142.635 247.958 138.304C247.958 136.525 248.267 134.708 248.886 132.852C249.505 130.919 250.433 129.024 251.67 127.168C252.985 125.312 254.609 123.572 256.542 121.948C258.475 120.247 260.757 118.739 263.386 117.424C257.354 114.176 252.598 109.845 249.118 104.432C245.715 99.0186 244.014 92.6773 244.014 85.4079C244.014 79.5306 245.174 74.2332 247.494 69.5159C249.891 64.7212 253.178 60.6613 257.354 57.3359C261.607 53.9333 266.595 51.3426 272.318 49.5639C278.118 47.7853 284.421 46.8959 291.226 46.8959ZM322.662 173.336C322.662 171.016 321.966 169.121 320.574 167.652C319.182 166.183 317.287 165.061 314.89 164.288C312.493 163.437 309.67 162.819 306.422 162.432C303.251 162.045 299.849 161.775 296.214 161.62C292.657 161.388 288.945 161.195 285.078 161.04C281.289 160.808 277.615 160.46 274.058 159.996C270.81 161.775 268.181 163.901 266.17 166.376C264.237 168.773 263.27 171.557 263.27 174.728C263.27 176.816 263.773 178.749 264.778 180.528C265.861 182.384 267.523 183.969 269.766 185.284C272.086 186.599 275.063 187.604 278.698 188.3C282.333 189.073 286.779 189.46 292.038 189.46C297.374 189.46 301.975 189.035 305.842 188.184C309.709 187.411 312.879 186.289 315.354 184.82C317.906 183.428 319.762 181.727 320.922 179.716C322.082 177.783 322.662 175.656 322.662 173.336ZM291.226 105.592C294.783 105.592 297.877 105.128 300.506 104.2C303.135 103.195 305.301 101.841 307.002 100.14C308.781 98.4386 310.095 96.3893 310.946 93.9919C311.874 91.5946 312.338 88.9653 312.338 86.1039C312.338 80.2266 310.559 75.5866 307.002 72.1839C303.522 68.7039 298.263 66.9639 291.226 66.9639C284.189 66.9639 278.891 68.7039 275.334 72.1839C271.854 75.5866 270.114 80.2266 270.114 86.1039C270.114 88.8879 270.539 91.4786 271.39 93.8759C272.318 96.2733 273.633 98.3613 275.334 100.14C277.113 101.841 279.317 103.195 281.946 104.2C284.653 105.128 287.746 105.592 291.226 105.592Z" fill="#7E8CA0"/>
<path d="M420.932 47.1279C429.825 47.1279 437.868 48.5586 445.06 51.4199C452.329 54.2813 458.516 58.3413 463.62 63.5999C468.724 68.8586 472.668 75.2773 475.452 82.8559C478.236 90.4346 479.628 98.9026 479.628 108.26C479.628 117.695 478.236 126.201 475.452 133.78C472.668 141.359 468.724 147.816 463.62 153.152C458.516 158.488 452.329 162.587 445.06 165.448C437.868 168.309 429.825 169.74 420.932 169.74C412.039 169.74 403.957 168.309 396.688 165.448C389.419 162.587 383.193 158.488 378.012 153.152C372.908 147.816 368.925 141.359 366.064 133.78C363.28 126.201 361.888 117.695 361.888 108.26C361.888 98.9026 363.28 90.4346 366.064 82.8559C368.925 75.2773 372.908 68.8586 378.012 63.5999C383.193 58.3413 389.419 54.2813 396.688 51.4199C403.957 48.5586 412.039 47.1279 420.932 47.1279ZM420.932 147.7C430.831 147.7 438.139 144.375 442.856 137.724C447.651 131.073 450.048 121.329 450.048 108.492C450.048 95.6546 447.651 85.8719 442.856 79.1439C438.139 72.4159 430.831 69.0519 420.932 69.0519C410.879 69.0519 403.455 72.4546 398.66 79.2599C393.865 85.9879 391.468 95.7319 391.468 108.492C391.468 121.252 393.865 130.996 398.66 137.724C403.455 144.375 410.879 147.7 420.932 147.7Z" fill="#7E8CA0"/>
<path d="M28.7982 205.309V209.35H17.319V240.837H12.5092V209.35H0.980469V205.309H28.7982Z" fill="#7E8CA0"/>
<path d="M37.8662 215.325C39.3703 215.325 40.7587 215.581 42.0314 216.094C43.3041 216.589 44.4033 217.317 45.3289 218.275C46.2545 219.217 46.9735 220.391 47.4858 221.796C48.0148 223.184 48.2792 224.771 48.2792 226.556C48.2792 227.25 48.2048 227.713 48.0561 227.945C47.9073 228.176 47.6263 228.292 47.2131 228.292H30.5027C30.5357 229.878 30.7506 231.259 31.1473 232.432C31.544 233.606 32.0894 234.589 32.7836 235.382C33.4778 236.159 34.3043 236.746 35.2629 237.143C36.2216 237.523 37.2959 237.713 38.486 237.713C39.5934 237.713 40.5438 237.589 41.3372 237.341C42.1471 237.077 42.8413 236.796 43.4198 236.498C43.9983 236.201 44.4776 235.928 44.8578 235.68C45.2545 235.416 45.5933 235.283 45.8743 235.283C46.2379 235.283 46.5189 235.424 46.7173 235.705L47.9569 237.316C47.4115 237.977 46.7586 238.556 45.9983 239.052C45.238 239.531 44.4198 239.928 43.5438 240.242C42.6843 240.556 41.7917 240.787 40.8661 240.936C39.9405 241.101 39.0232 241.184 38.1141 241.184C36.3786 241.184 34.7753 240.895 33.3043 240.316C31.8498 239.721 30.5853 238.862 29.511 237.738C28.4531 236.597 27.6267 235.192 27.0317 233.523C26.4366 231.854 26.1391 229.936 26.1391 227.771C26.1391 226.019 26.4036 224.383 26.9325 222.862C27.4779 221.341 28.2548 220.027 29.263 218.92C30.2713 217.796 31.5027 216.92 32.9572 216.292C34.4117 215.647 36.048 215.325 37.8662 215.325ZM37.9654 218.573C35.8332 218.573 34.1555 219.193 32.9324 220.432C31.7093 221.655 30.9489 223.358 30.6514 225.54H44.3123C44.3123 224.515 44.1719 223.581 43.8909 222.738C43.6099 221.879 43.1967 221.143 42.6512 220.531C42.1058 219.903 41.4364 219.424 40.643 219.093C39.8661 218.746 38.9736 218.573 37.9654 218.573Z" fill="#7E8CA0"/>
<path d="M53.9277 240.837V215.722H56.5558C57.1839 215.722 57.5806 216.027 57.7459 216.639L58.0682 219.217C58.9938 218.077 60.0268 217.143 61.1673 216.416C62.3243 215.689 63.6631 215.325 65.1837 215.325C66.8862 215.325 68.2581 215.796 69.2994 216.738C70.3572 217.68 71.1175 218.953 71.5803 220.556C71.9274 219.647 72.382 218.862 72.9439 218.201C73.5224 217.54 74.1671 216.994 74.8778 216.565C75.5885 216.135 76.3406 215.821 77.1339 215.622C77.9439 215.424 78.762 215.325 79.5885 215.325C80.9107 215.325 82.0843 215.54 83.109 215.97C84.1504 216.383 85.0264 216.994 85.7371 217.804C86.4644 218.614 87.0181 219.614 87.3982 220.804C87.7784 221.978 87.9685 223.325 87.9685 224.845V240.837H83.5553V224.845C83.5553 222.879 83.1256 221.391 82.2661 220.383C81.4066 219.358 80.1587 218.846 78.5224 218.846C77.7951 218.846 77.1009 218.978 76.4397 219.242C75.7951 219.49 75.2249 219.862 74.729 220.358C74.2332 220.854 73.8365 221.482 73.539 222.242C73.258 222.986 73.1175 223.854 73.1175 224.845V240.837H68.7043V224.845C68.7043 222.829 68.2994 221.325 67.4895 220.333C66.6796 219.341 65.4978 218.846 63.9441 218.846C62.8532 218.846 61.8367 219.143 60.8946 219.738C59.969 220.317 59.1177 221.11 58.3409 222.118V240.837H53.9277Z" fill="#7E8CA0"/>
<path d="M94.6521 249.341V215.722H97.2802C97.9082 215.722 98.3049 216.027 98.4702 216.639L98.8421 219.614C99.9165 218.308 101.14 217.259 102.511 216.465C103.9 215.672 105.495 215.275 107.297 215.275C108.735 215.275 110.04 215.556 111.214 216.118C112.387 216.664 113.387 217.482 114.214 218.573C115.04 219.647 115.677 220.986 116.123 222.589C116.569 224.193 116.792 226.036 116.792 228.118C116.792 229.969 116.544 231.697 116.048 233.3C115.553 234.887 114.842 236.267 113.916 237.44C112.991 238.597 111.85 239.515 110.495 240.192C109.156 240.853 107.644 241.184 105.958 241.184C104.404 241.184 103.073 240.928 101.966 240.415C100.875 239.903 99.9082 239.176 99.0652 238.234V249.341H94.6521ZM105.834 218.846C104.396 218.846 103.131 219.176 102.04 219.837C100.966 220.498 99.9743 221.432 99.0652 222.639V234.787C99.8752 235.878 100.759 236.647 101.718 237.093C102.693 237.539 103.776 237.763 104.966 237.763C107.297 237.763 109.09 236.928 110.346 235.258C111.602 233.589 112.23 231.209 112.23 228.118C112.23 226.482 112.082 225.077 111.784 223.903C111.503 222.73 111.09 221.771 110.544 221.027C109.999 220.267 109.33 219.713 108.536 219.366C107.743 219.019 106.842 218.846 105.834 218.846Z" fill="#7E8CA0"/>
<path d="M126.921 204.317V240.837H122.507V204.317H126.921Z" fill="#7E8CA0"/>
<path d="M153.144 240.837H151.186C150.756 240.837 150.409 240.771 150.145 240.639C149.88 240.506 149.707 240.225 149.624 239.796L149.128 237.465C148.467 238.06 147.822 238.597 147.194 239.077C146.566 239.539 145.905 239.936 145.211 240.267C144.517 240.581 143.773 240.82 142.979 240.986C142.203 241.151 141.335 241.234 140.376 241.234C139.401 241.234 138.484 241.101 137.624 240.837C136.781 240.556 136.046 240.143 135.418 239.597C134.789 239.052 134.285 238.366 133.905 237.539C133.542 236.696 133.36 235.705 133.36 234.564C133.36 233.573 133.632 232.622 134.178 231.713C134.723 230.788 135.599 229.969 136.806 229.259C138.029 228.548 139.624 227.969 141.591 227.523C143.558 227.06 145.963 226.796 148.806 226.73V224.771C148.806 222.821 148.384 221.35 147.541 220.358C146.715 219.35 145.483 218.846 143.847 218.846C142.773 218.846 141.864 218.986 141.12 219.267C140.393 219.532 139.756 219.837 139.211 220.184C138.682 220.515 138.219 220.821 137.822 221.102C137.442 221.366 137.062 221.498 136.682 221.498C136.384 221.498 136.12 221.424 135.889 221.275C135.674 221.11 135.5 220.912 135.368 220.68L134.575 219.267C135.963 217.928 137.459 216.928 139.062 216.267C140.665 215.606 142.442 215.275 144.393 215.275C145.798 215.275 147.045 215.507 148.136 215.97C149.227 216.432 150.145 217.077 150.888 217.903C151.632 218.73 152.194 219.73 152.574 220.903C152.954 222.077 153.144 223.366 153.144 224.771V240.837ZM141.69 238.134C142.467 238.134 143.178 238.06 143.822 237.911C144.467 237.746 145.07 237.523 145.632 237.242C146.211 236.944 146.756 236.589 147.269 236.176C147.797 235.763 148.31 235.292 148.806 234.763V229.531C146.773 229.597 145.045 229.763 143.624 230.027C142.203 230.275 141.046 230.606 140.153 231.019C139.26 231.432 138.608 231.92 138.194 232.482C137.798 233.044 137.599 233.672 137.599 234.366C137.599 235.027 137.707 235.597 137.922 236.077C138.136 236.556 138.426 236.953 138.789 237.267C139.153 237.564 139.583 237.787 140.079 237.936C140.574 238.068 141.112 238.134 141.69 238.134Z" fill="#7E8CA0"/>
<path d="M167.442 241.234C165.458 241.234 163.93 240.68 162.855 239.572C161.797 238.465 161.268 236.87 161.268 234.787V219.416H158.244C157.979 219.416 157.756 219.341 157.574 219.193C157.392 219.027 157.302 218.779 157.302 218.449V216.689L161.417 216.168L162.434 208.408C162.467 208.16 162.574 207.961 162.756 207.813C162.938 207.647 163.169 207.565 163.45 207.565H165.682V216.218H172.872V219.416H165.682V234.49C165.682 235.548 165.938 236.333 166.45 236.845C166.963 237.358 167.624 237.614 168.434 237.614C168.896 237.614 169.293 237.556 169.624 237.44C169.971 237.308 170.268 237.168 170.516 237.019C170.764 236.87 170.971 236.738 171.136 236.622C171.318 236.49 171.475 236.424 171.607 236.424C171.838 236.424 172.045 236.564 172.227 236.845L173.516 238.953C172.756 239.663 171.838 240.225 170.764 240.639C169.69 241.035 168.582 241.234 167.442 241.234Z" fill="#7E8CA0"/>
<path d="M188.27 215.325C189.774 215.325 191.163 215.581 192.435 216.094C193.708 216.589 194.807 217.317 195.733 218.275C196.659 219.217 197.378 220.391 197.89 221.796C198.419 223.184 198.683 224.771 198.683 226.556C198.683 227.25 198.609 227.713 198.46 227.945C198.311 228.176 198.03 228.292 197.617 228.292H180.907C180.94 229.878 181.155 231.259 181.551 232.432C181.948 233.606 182.494 234.589 183.188 235.382C183.882 236.159 184.708 236.746 185.667 237.143C186.626 237.523 187.7 237.713 188.89 237.713C189.998 237.713 190.948 237.589 191.741 237.341C192.551 237.077 193.245 236.796 193.824 236.498C194.402 236.201 194.882 235.928 195.262 235.68C195.659 235.416 195.997 235.283 196.278 235.283C196.642 235.283 196.923 235.424 197.121 235.705L198.361 237.316C197.816 237.977 197.163 238.556 196.402 239.052C195.642 239.531 194.824 239.928 193.948 240.242C193.088 240.556 192.196 240.787 191.27 240.936C190.345 241.101 189.427 241.184 188.518 241.184C186.783 241.184 185.179 240.895 183.708 240.316C182.254 239.721 180.989 238.862 179.915 237.738C178.857 236.597 178.031 235.192 177.436 233.523C176.841 231.854 176.543 229.936 176.543 227.771C176.543 226.019 176.808 224.383 177.337 222.862C177.882 221.341 178.659 220.027 179.667 218.92C180.675 217.796 181.907 216.92 183.361 216.292C184.816 215.647 186.452 215.325 188.27 215.325ZM188.369 218.573C186.237 218.573 184.56 219.193 183.336 220.432C182.113 221.655 181.353 223.358 181.056 225.54H194.716C194.716 224.515 194.576 223.581 194.295 222.738C194.014 221.879 193.601 221.143 193.055 220.531C192.51 219.903 191.84 219.424 191.047 219.093C190.27 218.746 189.378 218.573 188.369 218.573Z" fill="#7E8CA0"/>
</svg>
